<?xml version="1.0" encoding="utf-8"?>
<!-- Svg Vector Icons : http://www.onlinewebfonts.com/icon -->
<!DOCTYPE svg PUBLIC "-//W3C//DTD SVG 1.1//EN" "http://www.w3.org/Graphics/SVG/1.1/DTD/svg11.dtd">
<svg version="1.1" xmlns="http://www.w3.org/2000/svg" xmlns:xlink="http://www.w3.org/1999/xlink" x="0px" y="0px" viewBox="0 0 1000 1000" enable-background="new 0 0 1000 1000" xml:space="preserve">
<metadata> Svg Vector Icons : http://www.onlinewebfonts.com/icon </metadata>
<g><path d="M558.7,15.8c-6.5-1.2-12.8-2.6-19.5-3.6C459.8,0.3,391,13.6,331.5,41.9C143.9,110.6,10,290.8,10,502.2c0,98.8,29.3,190.7,79.6,267.6c19.3,39.8,41.8,71.2,67.1,81.9c88.4,86.8,209.5,140.4,343.2,140.4c270.6,0,490-219.4,490-490C990,251.5,801.6,44.8,558.7,15.8z M500,953c-115.4,0-220.7-43.6-300.5-115.1c25.8-10.3,53.2-21.6,78.6-32.7c40.9-17.9,49.7-28.7,91-47.1c0,0,4.3-21.3,2.8-34h32.3c0,0,7.4,4.3,0-45.9c0,0-39.4-10.5-41.2-90.4c0,0-29.6,10-31.4-38.4c-1.2-32.8-26.5-61.3,9.8-84.9l-18.5-50.2c0,0-36.9-202.6,69.2-172.8c-44.7-53.9,253.7-107.8,273,63.2c0,0,13.8,92.3,0,155.5c0,0,43.6-5.1,14.4,79.3c0,0-16,60.7-40.6,47.1c0,0,4,76.8-34.7,89.8c0,0,2.8,40.9,2.8,43.7l36.9,5.6c0,0-5.5,33.5,0.9,37.2c0,0,43.8,30.2,96,43.7c23.3,6,47.4,13.3,70.9,21C730.7,905.1,620.9,953,500,953z"/></g>
</svg>